Coordinates
version=1
nRows=11
nColumns=40
inDegrees=yes

Units are S.I. units (second, meters, Newtons, ...)
Angles are in degrees.

endheader
time	pelvis_tilt	pelvis_list	pelvis_rotation	pelvis_tx	pelvis_ty	pelvis_tz	hip_flexion_r	hip_adduction_r	hip_rotation_r	knee_angle_r	knee_angle_r_beta	ankle_angle_r	subtalar_angle_r	mtp_angle_r	hip_flexion_l	hip_adduction_l	hip_rotation_l	knee_angle_l	knee_angle_l_beta	ankle_angle_l	subtalar_angle_l	mtp_angle_l	lumbar_extension	lumbar_bending	lumbar_rotation	arm_flex_r	arm_add_r	arm_rot_r	elbow_flex_r	pro_sup_r	wrist_flex_r	wrist_dev_r	arm_flex_l	arm_add_l	arm_rot_l	elbow_flex_l	pro_sup_l	wrist_flex_l	wrist_dev_l
      3.53000000	     -3.53712670	     -6.14051927	      2.29396868	      0.92556231	      0.92922452	      0.50443490	     12.08517634	      4.72780088	    -16.00810335	     16.96130157	     16.96130157	     10.44946621	     -3.53634121	     -2.73313095	     31.66847426	    -12.26837024	      4.42220355	     68.77386120	     68.77386120	      4.60632686	    -18.93297276	     13.77797112	     -8.28069524	      4.50603420	      2.78848777	     11.35002753	    -18.02487934	     -2.63963152	     75.58208466	     43.74281200	      0.00000000	      0.00000000	      3.13983171	     -8.12836130	     -4.89689301	     27.83195507	     44.18151863	      0.00000000	      0.00000000
      3.54285714	     -3.68702987	     -6.04458001	      2.59853408	      0.92383800	      0.92960502	      0.50461243	     11.45355113	      4.76913306	    -15.98916407	     16.30377339	     16.30377339	     10.61139391	     -3.63539233	     -2.69981590	     33.16401303	    -12.04397001	      4.11551798	     66.71060551	     66.71060551	      5.61386659	    -19.08089293	     14.29288295	     -8.30067314	      4.43438038	      2.46839338	     13.53837790	    -17.93824654	     -2.80982415	     78.36312082	     43.69198888	      0.00000000	      0.00000000	      2.02592897	     -7.97809987	     -4.58509700	     27.17092228	     44.14856958	      0.00000000	      0.00000000
      3.55571429	     -3.81598825	     -5.91884900	      2.90947016	      0.92211266	      0.92992760	      0.50474238	     10.83968878	      4.76679012	    -15.95917683	     15.72586009	     15.72586009	     10.81742037	     -3.75891528	     -2.70612345	     34.41517906	    -11.71533883	      3.79946881	     64.31895460	     64.31895460	      6.56152358	    -19.17513619	     14.94301812	     -8.38831343	      4.31841020	      2.30001986	     15.56426497	    -18.01114107	     -2.97196302	     81.48229850	     43.62886801	      0.00000000	      0.00000000	      0.94302949	     -7.79983764	     -4.31150257	     26.81288809	     44.11703142	      0.00000000	      0.00000000
      3.56857143	     -3.96235173	     -5.79454551	      3.22996381	      0.92041439	      0.93014255	      0.50467817	     10.26727517	      4.74221312	    -15.98907339	     15.18262706	     15.18262706	     10.98830553	     -3.87346974	     -2.74156058	     35.48192114	    -11.29727345	      3.50108036	     61.64050274	     61.64050274	      7.47222511	    -19.21872957	     15.74898449	     -8.47298759	      4.25421565	      2.32586303	     17.43636176	    -18.23138037	     -3.18381901	     84.77043631	     43.56668580	      0.00000000	      0.00000000	     -0.08386814	     -7.59224063	     -4.00266474	     26.65168224	     44.08249033	      0.00000000	      0.00000000
      3.58142857	     -4.14118165	     -5.57997058	      3.52621775	      0.91869254	      0.93032948	      0.50447619	      9.75692393	      4.59649398	    -16.01774884	     14.68554323	     14.68554323	     11.12490262	     -3.94457508	     -2.74975021	     36.34669458	    -10.72317666	      3.15222391	     58.64927750	     58.64927750	      8.10394071	    -19.22660797	     16.33347664	     -8.55880217	      4.04195029	      2.38817837	     19.49058374	    -18.46343322	     -3.54616539	     87.41541908	     43.52296372	      0.00000000	      0.00000000	     -0.99949662	     -7.37880249	     -3.75691038	     26.45421256	     44.04997444	      0.00000000	      0.00000000
      3.59428571	     -4.34508018	     -5.52966387	      3.88110408	      0.91715119	      0.93015193	      0.50407767	      9.28074437	      4.60591742	    -16.16575972	     14.20323333	     14.20323333	     11.36379378	     -3.92580853	     -2.97160028	     37.13745370	    -10.12031124	      3.16493702	     55.54387512	     55.54387512	      8.81991701	    -19.15621493	     16.96273652	     -8.55351467	      4.11564812	      2.70325896	     20.93833915	    -18.86779185	     -3.93700625	     91.11608203	     43.47763989	      0.00000000	      0.00000000	     -1.87070699	     -7.19370687	     -3.20946369	     26.60391782	     43.99931457	      0.00000000	      0.00000000
      3.60714286	     -4.50905879	     -5.31225761	      4.20511272	      0.91562807	      0.93012814	      0.50344271	      8.80143937	      4.40497490	    -16.26165124	     13.82623679	     13.82623679	     11.58747760	     -3.93175851	     -3.06401483	     37.60999771	     -9.30977648	      3.11124963	     52.11536310	     52.11536310	      9.16417320	    -19.04619967	     17.04930328	     -8.59763230	      3.94843289	      2.78651731	     22.90405300	    -18.91390596	     -4.37148951	     93.26887670	     43.45857937	      0.00000000	      0.00000000	     -2.63979107	     -7.00445370	     -2.88703618	     26.37709680	     43.96280649	      0.00000000	      0.00000000
      3.62000000	     -4.72642705	     -5.18987716	      4.55387234	      0.91418595	      0.92983242	      0.50263573	      8.36756319	      4.27807547	    -16.53235093	     13.42236498	     13.42236498	     11.81744541	     -3.72517127	     -3.27595100	     38.02337862	     -8.50080216	      3.28878333	     48.56693937	     48.56693937	      9.20742715	    -18.81613683	     16.42164202	     -8.60115310	      3.92911563	      2.90197165	     24.63929944	    -19.04773886	     -4.75530727	     96.09284417	     43.43968901	      0.00000000	      0.00000000	     -3.40078493	     -6.85055251	     -2.38197976	     26.33164901	     43.91918440	      0.00000000	      0.00000000
      3.63285714	     -5.01404442	     -5.03085564	      4.87413336	      0.91276181	      0.92938945	      0.50163501	      8.07324137	      4.09448083	    -16.65358677	     13.15069463	     13.15069463	     12.08011707	     -3.79538859	     -3.34645697	     38.37949523	     -7.62534956	      3.55529572	     44.98140900	     44.98140900	      9.46080964	    -18.27948311	     16.43248104	     -8.43950127	      3.83254956	      3.15825957	     26.55506300	    -19.35193351	     -5.10495868	     97.29718425	     43.43122219	      0.00000000	      0.00000000	     -3.95195372	     -6.59120883	     -2.25742221	     26.17749118	     43.90090462	      0.00000000	      0.00000000
      3.64571429	     -5.07536530	     -4.82665893	      5.21501774	      0.91168798	      0.92921133	      0.50050598	      7.45139697	      3.86845687	    -16.94089688	     12.79059500	     12.79059500	     12.37418065	     -3.51486829	     -3.50967660	     38.24959702	     -6.70433596	      3.96203673	     41.22686304	     41.22686304	      9.43912896	    -17.69324669	     15.73881110	     -8.61467832	      3.72380597	      2.97067077	     28.35683699	    -18.95056950	     -5.19345602	     99.74271930	     43.38787222	      0.00000000	      0.00000000	     -4.66582691	     -6.49005651	     -2.02595495	     25.95333768	     43.87700837	      0.00000000	      0.00000000
      3.65857143	     -5.24493579	     -4.80176811	      5.54569758	      0.91075733	      0.92858463	      0.49935305	      6.95715305	      3.81191264	    -17.35981064	     12.44696587	     12.44696587	     12.65498262	     -3.05508340	     -3.82871722	     38.10589975	     -6.10981476	      4.24526898	     37.35604615	     37.35604615	      8.06033645	    -16.84529658	     11.31912232	     -8.59796545	      3.80820676	      3.41730118	     29.66162214	    -19.25986276	     -5.72813914	    102.27239829	     43.52037367	      0.00000000	      0.00000000	     -5.18065440	     -6.46951503	     -0.70659131	     26.18902390	     43.85771150	      0.00000000	      0.00000000
